# xmcd
#
# Track frame offsets:
#	150
#	14479
#	35395
#	55624
#	70165
#	83782
#	107230
#	125124
#	142596
#	153223
#	166940
#
# Disc length: 2399 seconds
#
# Revision: 1
# Processed by: cddbd v1.4PL0 Copyright (c) Steve Scherf et al.
# Submitted via: audiograbber 1.80
#
DISCID=85095d0b
DTITLE=Ivan Hlas - Tanec pri svickach
DYEAR=1900
DGENRE=
TTITLE0=Podivna vec
TTITLE1=Nadrazni blues
TTITLE2=Tanec pri svickach
TTITLE3=Krasna a velika
TTITLE4=Strasak
TTITLE5=Svet je nevinnej
TTITLE6=Takova kouzelna noc
TTITLE7=Dej mi jen par minut
TTITLE8=My si muzem vsechno dat
TTITLE9=Aranka umi hula hop
TTITLE10=Franceska
EXTD=
EXTT0=
EXTT1=
EXTT2=
EXTT3=
EXTT4=
EXTT5=
EXTT6=
EXTT7=
EXTT8=
EXTT9=
EXTT10=
PLAYORDER=
